<svg xmlns="http://www.w3.org/2000/svg" height="184.77" width="248" viewBox="0 0 248 184.77">
 <g transform="matrix(.68935 0 0 .68935 1.0725 1.0725)">
  <path d="m287.02 157.52c1.446-4.266 1.77-8.833 0.94-13.26 9.83-0.8 18.91-6.47 21.62-16.33 1.2-0.922 2.252-2.021 3.12-3.26 7.321 1.826 14.44 4.382 21.25 7.63-1.01-2.982-2.334-5.848-3.95-8.55 5.224 1.856 10.339 4.006 15.32 6.44 0 0-3.79-8.67-9.66-12.89l5.28 1.21c-6.48-10.41-21.3-17.49-32.29-20.94 6.64-13.14-2.35-26.51-10.87-34.48-6.27-5.87-16.25-12.25-29-17.33-5.88-6.83-13.51-12.41-20.76-16.93-9.257-5.7456-18.006-12.273-26.15-19.51 0 0-2.36 8.06-1 13.83-6.064-3.8093-12.622-6.7702-19.49-8.8-16.58-4.72-30.12-8.61-41.34-14.35 1.15 9.26 6.11 20.2 12.3 25.59 0.32 7.2506 1.587 14.428 3.77 21.35-16.16 5.72-35.24 15.71-54.34 37h-42.76l-28.87 39.34h-38.3l17.34 28.52-29.18 39.82h103.59l-7.22 30 44.73 14.23h24.17c-1 4-1.52 9.71 5.07 12l55.52 17.28h33.91c8.17-0.09 17.51-0.9 26-4.46s16.28-10.47 18.7-21.47l10.39-43.25 42-38.44z" fill="#c4c6c8"/>
  <path d="m169.38 10.9c2.46 5.2 9 12 9 12s0.74994 15.389 6.1699 27.789c-30.65 10.61-43.901 21.951-59.711 39.441h-42.709l-28.881 39.34h-30.48l13.791 22.699-24.42 33.35h99.209l-7.709 32 38.41 12.221h50.779l-4.1895 17.449 38.129 11.861h33c15.41-0.12 34.69-3.4217 38.75-21.182l10.84-45.129 31.791-29.09h-67.17c-0.047-0.1-0.10116-0.19803-0.16016-0.29101 2.862-1.078 5.1912-3.231 6.4902-6 2.31-4.61 1.5798-10.559 1.5098-11.219-0.07-0.65998-0.34117-0.88132-0.95117-0.61132-2.78 1.484-5.7444 2.592-8.8184 3.291-2.531-4.238-3.909-9.065-4-14 1.58 0 6.9391 0.2193 10.539-3.4707 2.27 0.4 4.5769 0.56523 6.8809 0.49023-0.443 1.861-1.1872 3.6378-2.2012 5.2598-0.2 0.29-0.40047 0.74961 0.76953 0.84961 4.48 0.41 18.001-0.85996 19.871-13.92 2.418-1.195 4.3186-3.2268 5.3496-5.7188 4.869 1.053 9.6352 2.5384 14.24 4.4394-4.248-2.857-8.7823-5.2637-13.529-7.1797 0.11-0.882 0.13985-1.7732 0.0898-2.6602 7.341 1.465 14.512 3.6794 21.4 6.6094-6.873-4.423-14.296-7.9259-22.08-10.42-0.19-0.68-0.41992-1.36-0.66992-2 7.044 1.099 13.969 2.8505 20.689 5.2305-7.023-4.128-14.634-7.162-22.57-9-1.43-2.492-3.4016-4.6315-5.7695-6.2598 0 0 8.5001-7.4397-1.0898-21.43-6.57-9.57-17.901-18.911-35.631-25.281-4.143-4.5382-8.7407-8.6399-13.721-12.24-7.14-5-15.49-9.1587-23.68-15.889-0.245 2.9127 0.25141 5.84 1.4414 8.5098 0 0-0.82117 1.8606-1.7012 4.3906-12.35-9.8-28.299-15.07-28.299-15.07-9.62-3.3-19.52-4.7102-29-9.1602zm18.189 17.039s7.3006 11.611 16.061 19.471c-2.57 0.65-5.0908 1.3892-7.5508 2.1992-3.983-6.7188-6.8568-14.036-8.5098-21.67zm43.6 25.66c22.75 1.07 48.79 12.311 56.4 29.451 0.815-1.4952 1.2617-3.1645 1.3027-4.8672 0.042-1.7026-0.3215-3.3904-1.0625-4.9238 0 0 10.57 8.14 9.9297 15-0.47 5.1-6.1209 4.4404-10.211 3.1504-5.93-1.9-8.9986-5.26-10.059-7-12.12-19.89-32.901-27.361-46.301-30.811zm-64.93 34.08c21.719 0.06221 43.209 5.5898 43.209 5.5898-6.38 22.58-2.8089 38.351 2.6211 51.461-6.289-5.293-11.11-12.116-14-19.811-4.683-2.134-9.5075-3.9422-14.439-5.4102 4.009-2.041 8.2832-3.5112 12.699-4.3692-7.189-3.21-14.566-5.9828-22.09-8.3008 4.904-2.406 10.136-4.0694 15.529-4.9394-10.516-5.55-21.484-10.195-32.789-13.881 3.05-0.24625 6.1571-0.34873 9.2598-0.33984zm70.529 24.721c-1.14 5.381-1.477 10.899-1 16.379 0.647 4.744 1.922 9.383 3.791 13.791-1.35-1.207-2.6403-2.4823-3.8613-3.8203-11.48-12.79 1.0703-26.35 1.0703-26.35zm10.551 3.7988s7.1997 3.5015 6.6797 10.771c0.92-0.78 1.6748-1.7374 2.2168-2.8144 0.543-1.077 0.86336-2.253 0.94336-3.457 0.774 0.64 1.364 1.4759 1.707 2.4199 0.342 0.945 0.42518 1.9642 0.24219 2.9512-0.46 3.86 1.1014 10.761 3.6914 15.391-16.88-7.92-18.48-16.63-18.48-19.82 0-3.19 3-5.4414 3-5.4414zm-2.3398 37.061c3.07 2.23 9.8197 6.5101 21.43 10.83-1.1 0.46-2.7795 1.1009-4.5195 1.6309-10.5-4.42-14.68-8.5709-16.91-12.461zm-74.701 81.689-0.44922 1.9316h1.8594l-1.6191 6.7695h2.25l1.6289-6.7695h1.8711l0.45899-1.9316zm7.7715 0-3.5606 8.7012h2.25l1.9199-5.0098h0.0293l0.79102 5.0098h0.90039l3.2891-5.0098h0.0195l-0.57031 5.0098h2.2617l0.7793-8.7012h-2.25l-2.9805 4.6504-0.65039-4.6504z" fill="#4f2170"/>
  <path d="m256.32 80.277c-1.5022 0.03594-2.1062 0.83711-2.0625 1.6621 0.15 2.71 2.9311 5.0802 5.6211 6.6602 0.81 0.19 1.6598 0.40086 2.5098 0.63086 1.021-1.9214 1.3422-4.1372 0.91016-6.2695-1.031-0.6788-2.118-1.2694-3.25-1.7617-1.6012-0.69-2.8272-0.94344-3.7285-0.92188zm11.957 7.0117c-0.536 0.7887-1.2814 1.4141-2.1524 1.8027-0.87 0.3886-1.8323 0.52614-2.7773 0.39844 4.11 1.16 8 2.5195 8 2.5195-0.718-1.7523-1.7593-3.3543-3.0703-4.7207zm-24.809 4.7539c-4.5392 0.0246-9.1412 0.42727-13.701 1.3066 21.07-1.58 38.671 5.5503 43.621 7.5801 0 0-22.5-7.3895-48-1.5195 16.585-1.5824 33.31 0.69439 48.869 6.6504 0 0-21.63-6.1203-42.58-0.81055 17.55-2.29 35.82 3.2792 43.41 5.9492 0 0-5.2894-0.99969-10.109-1.4297 2.3 4.55 8.0486 8.0006 15.809 7.5606 4.9-3.95 8.8208-4.5394 13.801-4.1895-3-4.42-8.4805-7.6113-8.4805-7.6113 1.372-0.58 2.8876-0.73899 4.3516-0.45899-8.8237-6.1342-27.32-13.134-46.99-13.027zm-154.41 11.717-28.881 39.33h-13.109l5.9199 9.75-13.9 19h27.93l9.1094-13.699h34.002l2.5996 13.699h16l-8.791 36.529 24.271 7.7207h52l5.3496-22.289h-27.871l-1.8496 7.6602h-20.75l7.75-32.211-7.25-6.6406h29.59l-1.7305 7.2305h27.811l5.25-21.85h-54.83c-7.18 0-16.001 0.27891-21.391 4.1289l-10.729-48.359zm212.67 1.1094c-0.759 0.516-1.4533 1.1218-2.0703 1.8008 0.551 0.703 0.99354 1.4853 1.3105 2.3203-1.155 1.72-2.5732 3.2483-4.2012 4.5293 0 0 2.6114 3.4308 2.1914 6.8008 0 0 4.7085-2.3099 5.4785-6.6699 0.82-4.59-2.709-8.7812-2.709-8.7812zm-30.09 14.951c0.33 2.26 0.34852 5.5391-2.5215 9.7891 0 0 7.3714-0.39853 9.1914-6.7285 0.487 1.064 0.78667 2.2031 0.88867 3.3691 0.667-0.089 1.2956-0.36959 1.8066-0.80859 0.511-0.438 0.88422-1.0151 1.0742-1.6621 0.422 0.992 0.65822 2.0539 0.69922 3.1309 0.665-0.106 1.2906-0.39122 1.8066-0.82422s0.905-0.99972 1.125-1.6367c0.513 0.919 0.79612 1.948 0.82812 3 0.598-0.148 1.1487-0.44905 1.5957-0.87305s0.77507-0.95687 0.95507-1.5469c0.529 0.831 0.80678 1.7972 0.80078 2.7812 1.154-0.454 2.1057-1.3102 2.6797-2.4102-0.198 2.498-1.1232 4.8814-2.6602 6.8594 0 0 6.7405-1.2403 8.3105-7.3203-14.34-0.59-23.62-3.8391-26.58-5.1191zm-184.13 2.2695h15.791l4 21-21.182 0.0293 9.2109-13.85zm174.14 23.051s-4.2106 4.3698-14.141 3.5898c6.69 4.453 13.897 8.0751 21.461 10.789 7.61-3.26 7.6699-6.7891 7.6699-6.7891-2.291 0.862-4.7132 1.3241-7.1602 1.3691-2.06 0.08-2.4805 2.5898-2.4805 2.5898-0.401-0.569-0.60784-1.2522-0.58984-1.9492-1.568-0.603-3.087-1.3279-4.541-2.1699-0.698 0.472-1.5429 0.67531-2.3789 0.57031 0.925-1.093 1.5977-2.3778 1.9707-3.7598 0.373-1.383 0.43845-2.8302 0.18945-4.2402zm-49.111 32.18 5 8.1602-12.609 52.459 24 7.4512h30.84c9.19 0 23.001-0.60094 25.471-10.711l11.84-49.16 8.9199-8.1602h-35.58l-13.029 54.23h-22.32l13-54.27z" fill="#fff"/>
 </g>
</svg>