<svg xmlns="http://www.w3.org/2000/svg" width="247" height="199.48" viewBox="0 0 247 199.48">
 <g transform="matrix(1.3333 0 0 -1.3333 -285.5 683.24)">
  <g>
   <path d="m310.76 429.82s-1.0655-9.3779 0-16.718c0 0-1.7666-1.0249 3.4892-2.0789 5.242-1.0518 10.037-1.1084 10.037-1.1084s-4.1825 8.6286-2.7706 16.751c0 0 5.6543 1.8192 6.6287 4.5558 0.97495 2.736 3.3448 2.9188 3.3448 2.9188l0.78721 4.5986 4.8643 2.7838 1.9653 0.43972 0.51382 2.7267s-2.4506 4.804-3.5573 10.622l2.7662 3.4118-0.50065 3.6972s-11.615 3.8262-20.561 3.3756c-8.9458-0.45125-17.342-0.5303-23.018-2.8304 0 0-0.7367-1.8434-0.75756-5.5033-0.0209-3.6605 2.27-9.4267 2.27-9.4267l11.5-3.8971s1.3845-3.3756 4.6272-5.3194c3.2422-1.9433-1.6277-8.9991-1.6277-8.9991" fill="#fff"/>
   <path d="m281.99 432.03c15.272 6.4783 33.225-2.0251 46.152-4.1002 0.37439-0.0604 0.83607 6.8582 1.2055 6.795 15.366-2.6356 24.11-6.5293 24.11-6.5293l-3.1466-8.2273 6.9586-2.59 3.8943-8.2245c0-30.978-41.292-45.453-41.292-45.453s-54.833 9.6858-65.519 40.959l23.357-2.4736 3.6813 30.837"/>
   <path d="m329.94 432.37 1.345 1.9565-3.1428-3.1077-1.4564-7.3121-5.4605-0.18445 4.2045-14.429 3.2948-2.5878s-0.6829-22.705 6.3498-28.532c0 0 9.2884 12.761 22.935 30.187l-11.517 9.7204s1.8972 3.9212 3.3229 8.863c0 0-9.8829 4.1112-19.875 5.4259" fill="#a89968"/>
   <path d="m348.66 417.5-1.4937-4.1468 4.6211 0.45893s-5.5588-19.557-19.155-32.349l3.8998-5.32s21.48 14.611 21.48 32.225l-2.9479 6.6051z" fill="#002855"/>
   <path d="m323.24 424.95s0.53304-10.868 3.9909-16.502c0 0-9.6908-0.0955-16.602 2.669l0.78995 19.198 11.197-1.8763z"/>
   <path d="m338.17 496.09s-4.2808 10.229-9.6249 14.53c0 0-28.299 1.671-45.821-24.373l2.3347-10.271s41.47 9.6546 53.111 20.114" fill="#002855"/>
   <path d="m333.17 502.6s-0.6077 3.5298-5.0976 7.1057c-3.0056-0.24923-26.302 0.27008-43.596-23.066l0.54347-5.4237-1.1523-0.99636-1.9433 6.5293s17.303 26.513 47.062 25.003c0 0 3.6056-2.2271 7.1914-9.9153z"/>
   <path d="m271.89 456.45s19.743 20.673 35.421 18.791c15.678-1.8818 36.469-4.6052 43.525-2.1492 7.0563 2.4555 12.911 9.6606 10.244 18.269l-7.3259 0.1559-5.4111-1.6765s-3.117 6.582 0.7625 16.68c0 0-15.28 1.4657-22.939-2.5241 0 0-2.825-2.6279-0.90249-7.9627 0 0-4.5273 1.5629-6.6957 6.8214 0 0-46.626-9.5936-56.507-49.045 0 0 2.0849-1.5107 9.8291 2.6405" fill="#002855"/>
   <path d="m305.88 476.82 6.2153-17.886-5.3326 1.9856s6.7928 1.5656 10.077 6.6265c0 0-12.312 8.0911-33.115-3.3465l-0.57476-0.2871" fill="#211d1d"/>
   <path d="m305.49 469.38v-1.478c-1.6288 0.0692-6.0028 0.17979-9.8291-0.4043l-8.2559-1.4282s2.2277-4.021-0.54785-11.084c-3.9459-10.042-1.1548-17.17-6.6504-23.158 0 0 3.5493-3.4514 4.6978 0.92871 0 0-0.58754 2.3396 6.5215-2.3276 0 0-0.58044 0.86229-0.57715 3.1597 0 0 2.9636-7.2522 14.014-10.484 0 0-3.0246 3.0155-4.5688 8.4726 0 0 1.2336-1.8963 3.4717-3.4614 0 0 0.52445-2.4746 0.58594 1.5586 4.317-9.3663 9.3149-8.0669 9.3149-8.0669l-0.85254 3.6973c2.0537-6.0199 8.4522-7.897 8.4522-7.897-0.60276 0.95299-0.83905 2.3943-0.92578 3.5845 0.92554-3.5852 6.6518-4.0825 6.6518-4.0825-1.3652 0.925-1.7446 2.1548-1.7446 2.1548 6.4426-3.3953 10.717-1.5322 10.717-1.5322-2.7646 0.22178-4.0356 1.7153-4.0356 1.7153 7.9357-2.1239 11.203 2.1226 11.203 2.1226-5.1476-0.78612-9.1318 3.3706-9.1318 3.3706 1.2121-0.43258 2.773-0.20361 2.773-0.20361-4.3567 2.7242-5.8303 6.2261-6.2886 7.7505l1.8955 0.70459 0.66357 4.8179-2.1826 0.10987-0.78955-2.6704-4.333-0.88037s1.3381-2.4138-1.2656-3.0659c-2.6037-0.65161-4.0172 1.3582-4.8999 4.333-0.88273 2.9748-8.477 8.5635-8.477 8.5635l-2.4683 6.728c2.2101 4.4877 2.4814 7.648 2.4814 7.648 0.16194-2.8233-0.39551-5.7393-0.39551-5.7393 4.0014 5.6466 6.0161 15.227 6.0161 15.227l-11.24 1.3169zm-6.0117-7.5454c2.6235-0.25417 4.8735-3.0015 4.8735-3.0015l-0.11133-2.2544-0.74268 0.36328c-0.19593-0.82491-0.45211-2.063-0.59472-3.4072l-0.03369-1.5396v-1.0737l-0.01026-0.52734c0.00383-0.03604 0.00605-0.07259 0.01026-0.1084l-0.01319-0.00586-0.04834-2.4185s-1.0267-0.45122-2.7861-0.49072c-1.7594-0.03898-2.6045 0.62988-2.6045 0.62988-0.28985 1.7715-1.2114 3.4497-1.2114 3.4497-1.6485 2.215-2.2148 6.0088-2.2148 6.0088 1.9131 3.1697 5.4873 4.3755 5.4873 4.3755z"/>
   <path d="m278.46 482.21s-5.7723-2.8826-12.361-2.6273c0 0 0.21739 0.98099 0.13889 1.8138 0 0-0.53249-1.0864-1.5766-1.8341l-5.4704 2e-3s0.19763 0.3733 0.34585 0.97551c0 0-0.54841-0.583-1.7858-0.56379 0 0-15.105-1.5228-26.115-10.217 0 0 0.95025 11.994 14.163 20.1 0 0-1.0853-0.17897-2.2343-0.47266 0 0 11.694 11.456 22.81 11.579l-2.1805 1.1572s24.186 8.5177 37.166-4.4125c0 0-17.092-12.326-22.9-15.5"/>
   <path d="m234.4 473.46s7.355 5.8865 18.542 7.5218c1.4053 0.20531 2.7673 0.32499 4.0919 0.39361 0.51822 0.0263 1.0244 0.16029 1.4794 0.40897 0.96123 0.52371 1.8659 1.133 2.5993 1.8346 0 0 0.0928-0.77458-0.30413-2.1618 1.345-3e-3 2.6531-0.0302 3.9316-0.0434 0.93159 0.8476 2.0015 1.9999 2.8008 3.3904 0 0 0.36781-1.3889-0.10375-3.3805 4.821 0.10705 9.6573 0.85364 14.149 4.53l0.22288 0.0406c6.6715 1.7715 18.343 10.679 18.343 10.679s-7.9692 7.8139-25.843 5.6115c-1.9894-0.24538-3.5556-0.61867-5.5209-1.0985l1.5794-0.8981c-7.1985-0.22014-15.789-4.1737-21.493-9.2082l3.6473 0.63953s-12.585-3.9701-18.123-18.259" fill="#a89968"/>
   <path d="m292.49 491.36c-0.35408-0.22562-0.7131-0.45124-1.0765-0.67577-0.66534-0.46167-1.34-0.92774-2.0169-1.3927 1.032 0.62252 2.0668 1.3098 3.0934 2.0685" fill="#7e6957"/>
   <path d="m291.41 490.68c-3.2729-2.024-6.8576-3.9564-9.5986-4.6843l-0.22288-0.0401c-0.23935-0.19598-0.47979-0.38372-0.72078-0.56323 2.6658 0.87669 5.5857 2.1223 8.5248 3.8949 0.67742 0.46497 1.3521 0.93103 2.0174 1.3927" fill="#563e2e"/>
   <path d="m282.62 498.65c-2.1294 0-4.4345-0.17237-6.8746-0.59892l1.6255-0.96342c-0.49077 0.0154-0.97221 0.0231-1.4471 0.0231-11.682-5.5e-4 -18.55-4.5328-18.55-4.5328l2.4923-0.64448s-2.955-0.65162-5.1553-1.48c-7.5982-2.8776-11.586-6.0924-17.117-12.93 0 0 9.015 5.5791 18.612 5.9112 0.35683 0.0121 0.70651 0.0785 1.0386 0.20861 1.0891 0.42764 3.5776 1.5728 5.1728 3.6303 0 0 0.66095-2.0322 0.14712-4.1348l1.4696-2e-3s2.4725 1.9164 3.5825 4.5866c0 0 1.8862-1.4756 1.743-4.407h0.0527c0.54951 0 5.3282 0.0604 11.456 2.0751 0.24154 0.17951 0.48144 0.36671 0.72078 0.56269l0.22343 0.0406c2.741 0.72792 6.3257 2.6603 9.5986 4.6843 0.36286 0.22453 0.72188 0.45015 1.076 0.67522 1.6644 1.2308 3.308 2.6498 4.8868 4.2852 0 0-5.8497 3.0105-14.753 3.0105" fill="#907258"/>
   <path d="m321.48 463.68c-0.66495-0.00109-1.3806-0.03361-2.1518-0.10108 0 0 4.6222-0.55671 7.4795-3.3574-2.3388 0.48863-3.8159 0.52734-3.8159 0.52734s-0.94031-2.6696 0.62695-5.6016c1.5678-2.932 4.5135-4.4061 7.7754-4.147 3.2614 0.25856 4.5952 5.8931 4.5952 5.8931-0.24525 0.12978-0.48983 0.25378-0.73242 0.375v0.00146s-0.0303 0.01413-0.03516 0.01611c-0.07399 0.03687-0.14747 0.07231-0.22119 0.1084-0.39383 0.20238-1.3179 0.7211-3.2534 2.0156-2.1128 1.4129-3.8392 4.2806-10.267 4.27zm11.21-20.536c-2.5502 7.6e-4 -4.1307-1.0496-6.1597-1.7036-4.883-1.5733-6.5713 1.1982-6.5713 1.1982s0.17466-3.1576 5.7642-4.2715l6.9111-1.377s2.6791-0.50313 3.917 0.4043c1.6743 1.2275 0.3501 4.9614 0.3501 4.9614-1.693 0.57057-3.0522 0.78774-4.2114 0.78808z"/>
   <path d="m362.86 500.77s-1.973-6.1127-10.2-6.918c0 0-0.35408-1.5887-2.237-1.783 0 0-2.9073 7.3654 4.9571 16.332 0 0-18.558 0.91402-30.958-3.0324 0 0-0.97221-4.5756-0.63076-6.9465 0 0-2.9183 1.9-3.852 5.8519 0 0-49.549-9.1204-63.158-54.276 0 0 15.831 1.2846 26.361 8.2734 0 0 3.3086 8.0922 17.036 13.105 14.114 5.1536 26.302 2.9391 36.852-0.45344 0 0 9.0919-5.3666 18.826 2.3622 9.7342 7.7288 8.9914 20.577 7.0031 27.485m-15.015-25.893c-11.215-1.5354-20.768 5.0894-34.312 2.7794 0 0 2.3199 1.9757 8.2311 2.9918 0 0-25.484 6.3355-51.735-23.556 0 0-3.717-2.2222-7.8853-3.1768 0 0 4.4433 13.768 17.891 27.106 13.446 13.338 37.852 19.663 37.852 19.663s2.7635-3.6632 7.8358-5.2426c0 0-0.80642 2.6531 0.84924 8.0609 0 0 9.4965 2.3506 19.873 1.2906 0 0-6.1379-16.557 6.4415-20.023 0 0-1.1116 1.3115-0.86955 3.3025 0 0 3.852-0.27887 5.9134 2.1086 0 0 1.1298-13.768-10.085-15.304"/>
   <path d="m289.06 466.57c23.491 16.301 53.332 4.1688 53.332 4.1688l-2.6899-8.3217c-24.318 7.0437-43.831 1.149-50.714 0 0 0-0.68456 1.5541-1.5838 3.0379z" fill="#a89968"/>
   <path d="m275.17 437 1.6721-14.642-20.095-10.422-2.3929-7.2715s3.4304-3.2795 18.533-14.418c19.002-14.013 45.998-25.175 45.998-25.175l9.9241 6.2922 7.9434 4.6266c-5.5461 17.079-7.1392 34.247-7.1392 34.247s-12.316-0.0999-12.482 0.49242c-1.9697 7.0327 1.2319 21.299 1.2319 21.299-29.975-1.7144-43.193 4.9714-43.193 4.9714"/>
   <path d="m326.24 406.41c1.474-12.344 2.1124-18.193 7.2781-32.307 0 0-11.654-6.1456-14.266-6.7341 0 0-46.316 7.3786-61.463 36.956l1.9098 6.1116 19.446 10.27-2.0635 13.836c16.138-6.812 37.772-4.7062 37.772-4.7062s-1.9126-8.3843-1.0024-20.006c0 0-11.498-1.3839-24.215 4.378 0 0 8.1411-7.7228 34.694-7.7645z" fill="#002855"/>
   <path d="m349.24 418.9-2.0762-5.5489 4.6212 0.45839s-5.09-20.695-17.515-32.416l-1.3054 2.612s9.9631 9.7073 15.404 26.522l-5.2914-0.53578 4.0123 9.413z"/>
   <path d="m323.11 395.48c-0.27942 1.6584-1.4004 2.8518-2.5044 2.6663-0.17787-0.0302-1.0161-0.0533-1.2802-0.0977-1.1034-0.18609-1.7715-1.6815-1.4915-3.3399 0.27887-1.6584 1.4004-2.8524 2.5038-2.6663 0.17787 0.0297 1.0161 0.0532 1.2802 0.0977 1.1034 0.1861 1.7715 1.6809 1.4921 3.3399" fill="#b17148"/>
   <path d="m317.85 394.71c-0.27942 1.6584 0.38866 3.1538 1.4921 3.3399 1.1034 0.18555 2.2244-1.0079 2.5038-2.6663 0.27997-1.6584-0.38812-3.1538-1.4915-3.3399-1.104-0.18609-2.2249 1.0079-2.5044 2.6663" fill="#a89968"/>
   <path d="m327.09 378.97c-0.61209 1.5667-1.9532 2.5066-2.9957 2.0992-0.16799-0.0659-0.98374-0.25966-1.233-0.35737-1.0425-0.40678-1.3911-2.007-0.77897-3.5737 0.61209-1.5662 1.9532-2.506 2.9951-2.0992 0.16853 0.0659 0.98374 0.25966 1.2335 0.35737 1.0425 0.40733 1.3911 2.007 0.77897 3.5737" fill="#b17148"/>
   <path d="m322.1 377.14c-0.61209 1.5667-0.2635 3.167 0.77897 3.5737 1.0419 0.40788 2.3836-0.53249 2.9957-2.0987 0.61209-1.5667 0.26295-3.1669-0.77898-3.5743-1.0425-0.40733-2.3836 0.53249-2.9957 2.0992" fill="#a89968"/>
   <path d="m357.93 490.18s-0.79341-4.2211-4.1909-4.9995c0 0 1.2038-0.56652 2.7612 0 0 0-2.6961-10.395-15.504-7.3213-9.5338 2.2881-14.372 2.0171-14.372 2.0171s2.8752 1.1605 8.0991 1.7007c0 0-2.9958 4.3106-13.494 5.666-6.6254 0.85583-35.72-0.79518-47.027-18.154-3.0149-4.6283-7.8943-6.6963-9.1816-4.894-0.83661 1.1715-4.8662-10.493-3.0908-11.071 1.6008-0.52261 6.7302 1.7676 8.0977 2.8096 0 0 10.246 10.417 21.637 14.54 11.391 4.1232 26.2 6.7915 36.442 4.1851 10.242-2.6065 34.526-5.7302 29.846 15.463l-0.02344 0.05859zm-80.854-55.639 2.064-13.835s13.211-11.513 30.825-10.988c0 0-7.5093 5.6227-11.644 10.852h8.4009l-10.535 7.5513-0.4541 1.979s-9.7225 0.78095-18.656 4.4414zm-14.175-23.527c-2.1617-0.02717-3.2065-0.57861-3.2065-0.57861l-1.9102-6.1128c9.1632-18.452 30.163-26.774 30.163-26.774s-5.4293 21.208-10.84 26.2c-2.7805 2.5658-9.7778 4.6963-9.7778 4.6963h5.477c-4.4663 2.0987-7.7436 2.5965-9.9053 2.5693zm91.159-0.8042-4.3403-0.32812s-4.317-15.448-14.865-27.905l1.8984-5.9883s21.793 15.503 21.258 31.966l-4.7358-0.54492 0.78516 2.8008zm-42.672-11.108c-0.25252-19.388 4.4546-31.116 4.4546-31.116l3.4043-0.61816 1.2217 0.39843c-7.3379 11.475-9.0806 31.336-9.0806 31.336z" fill="#00254a"/>
   <g>
    <path d="m341.97 472.36c-0.33945-0.02835-0.61963-0.12451-0.61963-0.12451s-0.22926-1.3044-0.53613-2.3013-0.2684-1.9756-1.6304-1.7549-7.4209 1.1645-12.188 0.58593c0 0 10.847-2.2068 11.834-2.7436 0.98648-0.53688 1.0104-1.7717 0.4834-2.5562-0.52755-0.78446-4.6105 1.4069-14.531 2.6338-8.0164 0.99088-23.216 0.90404-35.285-3.5288l1.5542-0.43799s12.622 3.3055 27.012 2.8301c9.779-0.32271 15.643-1.8414 18.85-2.751l0.84229-3.6548-1.0825-1.4136c-0.82454-1.0782-1.6831-1.8838-1.6831-1.8838s0.51785-5.8961 3.3648-10.816l-0.61963-1.938-6.6562 1.4268-0.24463 3.8335-1.7139-4.0356 0.68262-1.5073 7.3066-1.9482 2.8711 0.63574 0.71778 3.315c-2.3726 3.3086-3.687 10.576-3.687 10.576 1.8187 2.4061 2.9004 3.6152 2.9004 3.6152-0.30091 1.4893-0.50725 2.4486-0.66651 3.1655 0.23892-0.04862 0.43704-0.07644 0.57129-0.06299 1.3038 0.1312 2.2245 1.8962 1.6113 4.5806 0 0 1.4957 3.2967 1.7065 5.061 0.13175 1.1027-0.59879 1.247-1.1646 1.1997z"/>
    <path d="m289.1 465.55s6.4135 4.4823 14.869 6.2806c0 0-10.49-3.7571-14.457-7.2276z"/>
    <path d="m290.62 463.63s3.1571 2.2398 8.8509 3.8564c0 0-5.3298-0.60989-9.4482-3.0561z"/>
   </g>
   <path d="m289.6 466.94-2.4463-1.6304 1.1294 0.14209 0.79394-0.80273 0.28272 0.3999 0.32666-0.52148 0.54931-0.33985h-0.54931l0.68408-1.3272 0.67383 0.24024c-0.36286 0.62636 0.46875 1.0869 0.46875 1.0869h-1.0708l0.7456 0.87012c-0.7433-0.34859-0.8943-0.33516-0.9624-0.16553-0.0681 0.17018 0.68994 0.78223 0.68994 0.78223l-1.3301-0.30469 0.64014 0.90527s-0.72982-0.43749-1.2349-0.24316c-0.29589 0.25472 0.60937 0.9082 0.60937 0.9082zm-6.8643-3.9756c-0.13894-8e-3 -0.28247-0.15906-0.43213-0.57715 0 0 0.0931-0.67393-0.3999-1.1148-0.49297-0.44081 0.98543-0.23458 1.7666-0.56396 0.78062-0.32828 0.0674 1.316-0.27246 1.6641-0.21272 0.21753-0.43054 0.60454-0.66211 0.5918zm0.42334-24.148c-4.3582-0.0332-7.5346-0.40819-7.938-1.3843-1.1956-2.8919 16.345-5.4756 16.345-5.4756l21.584 4.8032s-18.854 2.1414-29.991 2.0566z" fill="#100f0d"/>
   <path d="m265.04 446.79s-6.7824-1.5481-10.112 0.35518c0 0 1.323-4.7458 5.0658-4.9061 0 0 4.4729 1.4784 5.046 4.5509"/>
   <path d="m268.53 447.46c0.36616 0.2635-4.9176-3.5814-11.492-1.99 0 0 2.8864-4.4548 9.1775-3.3157z" fill="#a89968"/>
   <path d="m289.5 461.8s0.2882-14.856-14.306-20.353c-14.595-5.4956-21.186-1.2022-24.927 2.3067 0 0 8.1521-1.9054 13.654 2.2634 5.5017 4.1688 11.04 16.751 22.894 16.26z"/>
   <path d="m288.19 461.01s-0.27119-4.1304-2.4116-7.9434c-2.1398-3.8125-6.5129-9.8401-16.239-12.03-10.326-2.3254-15.718 1.2105-15.718 1.2105s4.0305-1.4487 9.4251 1.5338c4.6475 2.5697 7.0624 7.2584 11.334 11.613 3.8532 3.9273 7.6882 5.9584 13.609 5.6164" fill="#a89968"/>
   <path d="m290.39 463.61s0.42325-2.8969-2.2315-3.1884c0 0-2.5691 0.88932-2.7915 2.4044-0.31126 2.1206 1.6128 2.5697 2.9605 2.6366 0 0 1.6139 0.41172 2.0624-1.8527" fill="#a89968"/>
   <path d="m289.07 460.67s-0.8443-0.34475-1.2983 1.0403c-0.27173 0.82948-0.69663 0.27118-1.6354 0.43862-0.81081 0.14437-0.81081 1.1846-0.81081 1.1846s-0.33597-1.1836 0.27667-1.8192l0.0851-0.0785c-0.54786-0.11748-1.0754-0.53304-1.0754-0.53304s0.73176-0.12956 9e-3 -1.239c-0.92939-1.4268-2.859-1.6398-5.943-3.9316-3.084-2.2919-3.7922-5.1064-3.7922-5.1064s1.6518 3.431 6.2181 5.7564c3.1071 1.5826 4.5212 2.8595 5.1569 3.6363 0.0955-0.28106-0.0313-0.75207-0.49571-1.7358-0.50888-1.0782-1.9071-2.7926-3.8328-3.9986 0 0 1.7545 0.70926 3.2789 2.1327 0 0 1.0782 1.0875 1.5914 2.4116 0.60001 1.5481 1.6672 1.2884 1.6672 1.2884s-0.0889 0.11363-0.22727 0.26295c0.28765 0.0121 0.5797 0.0944 0.82783 0.2904"/>
   <path d="m323.57 460.67s-8.2926 0.90194-17.802 3.4595l-1.4125-0.34255s10.185-3.678 19.289-4.435z"/>
   <path d="m335.99 459.99s-1.5184-2.3052-0.82178-6.0776c0 0 1.2535 0.46749 1.9732 0.22705 0 0-0.98064 3.3023-1.1514 5.8506zm-57.914-34.812-1.2319-2.8228 3.4453-6.2651-2.2134 9.0879z" fill="#100f0d"/>
   <path d="m281.88 434.37c-4.2385 0.83442-4.8034 1.6282-4.8034 1.6282-1.5332 1.8044 6.0287 1.3625 6.0287 1.3625s-0.35957-2.1596-1.2253-2.9907" fill="#a89968"/>
   <path d="m395.1 388.74 3.5885 15.338h-26.437 0.94531-1.531l-1.0996-1.2011-0.80642 1.2011h-114.41l-0.68895-1.5838-1.9614 1.5838h-0.48912 0.36945-30.804l9.0968-10.375-2.4401-11.641-7.7612-5.8459h1.0293l-6.7604-5.3084h29.998l1.8028 0.99252v-0.0401l0.78007-0.95244h6.2494l1.676 0.89919 0.92445-0.89919h36.66l1.2083 0.8163 1.2835-0.8163h67.446l1.0057 0.76305 1.8516-0.76305h25.003l3.7165 15.503-0.90633 1.9126h0.0258zm-6.8098-15.627-23.466 0.37219-1.6403 1.0996-0.36726-1.4718h-66.593l-1.6436 1.4718-2.1783-1.4718h-35.612l0.17292 1.4718-2.8754-1.4718h-5.2936l0.52096 2.9216-3.6863-2.9216h-17.548l-0.67193 1e-3 -5.4018-2e-3 6.4547 4.3922h-1.4427l3.5282 2.5598 3.241 14.012-6.7835 7.4175h25.588l2.7261-3.7593 1.3521 3.728 111.18 0.0296 1.564-3.7576 3.1066 3.7587 0.87284 5.5e-4h21.71l-2.7777-11.577h-3.2449l2.6136-2.6312z" fill="#a89968"/>
   <path d="m219.39 372.43 25-0.29918 3.0511 1.3768 1.1067-1.4103 5.27 0.0867 2.1437 0.92884 1.003-0.93049h35.141l2.0838 1.3027 2.8689-1.4734 64.699 0.17072 2.22 1.6749 2.6378-1.4273h22.464l3.4595 14.004-1.4185 2.5104 2.7854 0.97276 2.8727 12.867h-24.34l-2.1272-2.1602-1.559 2.1602h-112.79l-1.0145-2.1602-2.7464 2.1602h-27.216l7.3078-8.6313-2.6224-13.591z" fill="#002855"/>
   <path d="m259.96 400.38c-1.0205 0-1.7329-0.77314-1.7329-1.7168v-0.00879c0-0.95299 0.72591-1.708 1.7036-1.708 0.64119 0 1.0218 0.22821 1.3638 0.59327l-0.46582 0.46875c-0.26131-0.23715-0.49463-0.38819-0.87451-0.38819-0.56928 0-0.9624 0.47425-0.9624 1.043v0.01025c0 0.56873 0.40246 1.0342 0.9624 1.0342 0.33266 0 0.59471-0.14225 0.85107-0.375l0.46436 0.53614c-0.30851 0.30357-0.68266 0.51123-1.3096 0.51123zm30.139 0c-1.026 0-1.771-0.77314-1.771-1.7168v-0.00879c0-0.94366 0.73585-1.708 1.7607-1.708 1.026 0 1.771 0.77314 1.771 1.7168v0.01025c0 0.94367-0.73583 1.7066-1.7607 1.7066zm14.379 0c-1.026 0-1.771-0.77314-1.771-1.7168v-0.00879c0-0.94366 0.73529-1.708 1.7607-1.708 1.0255 0 1.771 0.77314 1.771 1.7168v0.01025c0 0.94367-0.73529 1.7066-1.7607 1.7066zm-21.782-0.00879c-0.67907 0-1.1646-0.39883-1.1646-1.0005v-0.01025c0-0.65875 0.4333-0.84441 1.103-1.0151 0.55555-0.14273 0.66797-0.23633 0.66797-0.42188v-0.00878c0-0.19433-0.17981-0.31202-0.479-0.31202-0.37988 0-0.69251 0.15488-0.9917 0.40137l-0.43213-0.51562c0.3991-0.35573 0.90578-0.53174 1.4092-0.53174 0.71694 0 1.2217 0.37048 1.2217 1.0298v0.00879c0 0.5786-0.38057 0.82098-1.0547 0.9961-0.57477 0.14712-0.71777 0.21858-0.71777 0.43652v0.00879c0 0.1614 0.14776 0.28857 0.42773 0.28857 0.27996 0 0.57002-0.12245 0.86426-0.32666l0.3794 0.54932c-0.33706 0.27064-0.74867 0.42334-1.2334 0.42334zm17.714 0c-0.67906 0-1.1631-0.39883-1.1631-1.0005v-0.01025c0-0.65875 0.43182-0.84441 1.1016-1.0151 0.55554-0.14273 0.66943-0.23633 0.66943-0.42188v-0.00878c0-0.19433-0.17982-0.31202-0.479-0.31202-0.37989 0-0.69398 0.15488-0.99316 0.40137l-0.43213-0.51562c0.3991-0.35573 0.90725-0.53174 1.4106-0.53174 0.71694 0 1.2202 0.37048 1.2202 1.0298v0.00879c0 0.5786-0.38057 0.82098-1.0547 0.9961-0.57476 0.14712-0.71631 0.21858-0.71631 0.43652v0.00879c0 0.1614 0.14777 0.28857 0.42773 0.28857 0.27997 0 0.56856-0.12245 0.8628-0.32666l0.38086 0.54932c-0.33706 0.27064-0.75014 0.42334-1.2349 0.42334zm55.579 0c-0.67851 0-1.1631-0.39883-1.1631-1.0005v-0.01025c0-0.65875 0.43238-0.84441 1.1016-1.0151 0.55555-0.14273 0.66944-0.23633 0.66944-0.42188v-0.00878c0-0.19433-0.17983-0.31202-0.47901-0.31202-0.37988 0-0.69252 0.15488-0.9917 0.40137l-0.43359-0.51562c0.39909-0.35573 0.90725-0.53174 1.4106-0.53174 0.71694 0 1.2202 0.37048 1.2202 1.0298v0.00879c0 0.5786-0.3791 0.82098-1.0532 0.9961-0.57476 0.14712-0.71778 0.21858-0.71778 0.43652v0.00879c0 0.1614 0.14777 0.28857 0.42774 0.28857s0.57002-0.12245 0.86426-0.32666l0.37939 0.54932c-0.33706 0.27064-0.75012 0.42334-1.2349 0.42334zm-88.418-0.02344-1.4238-3.3442h0.74414l0.30469 0.74561h1.4048l0.30469-0.74561h0.76465l-1.4253 3.3442h-0.67382zm-5.2207-0.02344v-3.3208h0.73096v1.333h1.3491v-1.333h0.73096v3.3208h-0.73096v-1.314h-1.3491v1.314h-0.73096zm8.3042 0v-3.3193h0.73242v1.062h0.57422l0.71192-1.062h0.854l-0.81152 1.1851c0.42269 0.15646 0.71191 0.49254 0.71191 1.0283v0.01025c0 0.3129-0.09918 0.57379-0.28418 0.75879-0.21849 0.21848-0.54556 0.33691-0.96826 0.33691h-1.5205zm3.9067 0v-3.3208h2.3877v0.66504h-1.6567v2.6558h-0.73096zm3.4116 0v-3.3208h2.5298v0.65039h-1.8032v0.69727h1.5659v0.64892h-1.5659v0.67383h1.7798v0.65039h-2.5064zm6.8569 0v-0.67383h1.0107v-2.647h0.73242v2.647h1.0107v0.67383h-2.7539zm8.1533 0v-3.3208h0.7207v2.1108l1.6099-2.1108h0.62256v3.3208h-0.72217v-2.0449l-1.5571 2.0449h-0.67382zm14.326 0v-1.897c0-0.97715 0.54642-1.4751 1.4385-1.4751 0.89261 0 1.4575 0.49339 1.4575 1.4985v1.8735h-0.73095v-1.9028c0-0.5259-0.27056-0.79687-0.71631-0.79687-0.44631 0-0.71777 0.28014-0.71777 0.82031v1.8794h-0.73096zm3.8774 0v-0.67383h1.0107v-2.647h0.73096v2.647h1.0122v0.67383h-2.7539zm3.7866 0v-3.3208h0.73096v1.333h1.3491v-1.333h0.73096v3.3208h-0.73096v-1.314h-1.3491v1.314h-0.73096zm4.0811 0v-3.3208h2.5312v0.65039h-1.8047v0.69727h1.5659v0.64892h-1.5659v0.67383h1.7798v0.65039h-2.5063zm3.6548 0v-3.3193h0.73096v1.062h0.57422l0.71191-1.062h0.854l-0.81152 1.1851c0.42269 0.15646 0.71192 0.49254 0.71192 1.0283v0.01025c0 0.3129-0.09918 0.57379-0.28418 0.75879-0.21849 0.21848-0.54557 0.33691-0.96827 0.33691h-1.519zm3.9053 0v-3.3208h0.72071v2.1108l1.6099-2.1108h0.62256v3.3208h-0.72217v-2.0449l-1.5571 2.0449h-0.67383zm6.3062 0v-1.897c0-0.97715 0.54679-1.4751 1.4399-1.4751 0.89206 0 1.456 0.49339 1.456 1.4985v1.8735h-0.73095v-1.9028c0-0.5259-0.27001-0.79687-0.71631-0.79687-0.44631 0-0.71778 0.28014-0.71778 0.82031v1.8794h-0.73095zm4.1147 0v-3.3208h0.72217v2.1108l1.6084-2.1108h0.62256v3.3208h-0.72217v-2.0449l-1.5571 2.0449h-0.67383zm4.2568 0v-3.3208h0.73096v3.3208h-0.73096zm1.7505 0 1.3433-3.3442h0.646l1.3433 3.3442h-0.78809l-0.86865-2.3379-0.86865 2.3379h-0.80713zm4.3184 0v-3.3208h2.5312v0.65039h-1.8047v0.69727h1.5674v0.64892h-1.5674v0.67383h1.7812v0.65039h-2.5078zm3.6548 0v-3.3193h0.73096v1.062h0.57422l0.71191-1.062h0.85547l-0.81152 1.1851c0.4227 0.15646 0.71191 0.49254 0.71191 1.0283v0.01025c0 0.3129-0.10064 0.57379-0.28564 0.75879-0.21849 0.21848-0.54557 0.33691-0.96826 0.33691h-1.519zm7.4502 0v-3.3208h0.73095v3.3208h-0.73095zm1.7988 0v-0.67383h1.0107v-2.647h0.73096v2.647h1.0107v0.67383h-2.7524zm3.4453 0 1.2773-2.0112v-1.3096h0.73096v1.3242l1.2759 1.9966h-0.83057l-0.80713-1.333-0.79248 1.333h-0.854zm-73.622-0.61816c0.58904 0 1.0064-0.4737 1.0064-1.043v-0.00879-0.00146c0-0.56927-0.40815-1.0327-0.99609-1.0327-0.58903 0-1.0078 0.47425-1.0078 1.043v0.01025c0 0.56873 0.40963 1.0327 0.99755 1.0327zm14.379 0c0.58849 0 1.0064-0.4737 1.0064-1.043v-0.00879-0.00146c0-0.56927-0.40761-1.0327-0.99609-1.0327-0.58903 0-1.0064 0.47425-1.0064 1.043v0.01025c0 0.56873 0.40761 1.0327 0.99609 1.0327zm-33.081-0.04248h0.7251c0.35627 0 0.57569-0.16024 0.57569-0.47315v-0.01025c0-0.27997-0.20476-0.46875-0.56104-0.46875l-0.73975-0.00146v0.95361zm52.053 0h0.72656c0.35627 0 0.57422-0.16024 0.57422-0.47315v-0.01025c0-0.27997-0.20384-0.46875-0.55957-0.46875l-0.74121-0.00146v0.95361zm28.307 0h0.72656c0.35627 0 0.57422-0.16024 0.57422-0.47315v-0.01025c0-0.27997-0.20384-0.46875-0.55957-0.46875l-0.74121-0.00146v0.95361zm-83.848-0.19336 0.44092-1.0767h-0.8833l0.44238 1.0767zm-31.345-0.88037-1.0605-0.17139 2.1812-1.9995-4.1558-20.027h12.543c0.05161 0 0.93239 0.75355 2.644 2.2632l1.6816 8.0142c-0.06203 0-0.58749 0.25833-1.5762 0.7749 0.3689 0.27942 1.01 0.56837 1.9219 0.86865l1.6802 8.0142c-1.0732 1.5091-1.6406 2.2632-1.7022 2.2632h-14.158zm137.87 0c-0.03074-0.1345 0.32843-0.85834 1.0767-2.1709l-0.6958-3.0527c-0.25417-1.116-0.60105-2.7705-1.0386-4.9614l4.8838-2.6191c2.5126-1.2302 3.7506-1.9218 3.7148-2.0772l-0.7002-3.0542c-0.0258-0.11363-0.09584-0.17139-0.20947-0.17139h-5.3994c-0.17567 0-1.3691 0.63583-3.583 1.9072h-0.07764l-1.3682-5.9985h14.621l2.4243 10.525c0.01427 0.06203-0.1038 0.18121-0.35303 0.35742-5.4308 2.955-8.1595 4.4951-8.1826 4.6186l0.55664 2.4346c0.02141 0.09278 0.09035 0.14902 0.20947 0.16992h5.4097c0.17622 0 1.3733-0.63583 3.5889-1.9072h0.07764l1.3814 6h-16.336zm-131.82-3.6592h4.2759c0.11359 0 0.15836-0.05629 0.13476-0.16992l-0.82031-3.9214c-0.98374-0.69224-1.6359-1.04-1.957-1.04h-1.8325c-0.49681 0-0.86368 0.05776-1.0986 0.17139 0.44521 1.8396 0.75927 3.204 0.94482 4.0928l0.14502 0.69727c0.01977 0.09332 0.08944 0.14902 0.20801 0.16992zm101.7-0.77783-0.01611-0.07471c0.54677-1.0496 0.86887-1.6029 0.96387-1.6611-2.1064-9.2758-3.31-14.592-3.6108-15.948l-0.01612-0.0747h10.45l1.0415 4.6626c-2.5598-1.1578-3.8731-1.7358-3.939-1.7358h-2.7202c-0.0747 0-0.10847 0.04513-0.10547 0.13623l1.0371 4.6626c0.01811 0.08237 0.07346 0.13242 0.16846 0.14942h4.8853l0.71337 3.1992h-4.8867c-0.0747 0-0.11094 0.04513-0.10694 0.13623l0.7749 3.4849c0.01647 0.0747 0.07346 0.11923 0.16846 0.13623h6.4307l0.65332 2.9268h-11.886zm-89.915-0.00586-0.02783-0.13623c0.61923-1.0419 0.91108-1.6453 0.87598-1.8106l-3.3252-15.812h3.8364c0.14053 0 1.546 0.60338 4.2173 1.8105h0.06299l-0.38379-1.8105h5.2998l0.02929 0.13623c-0.61867 1.0255-0.90851 1.6283-0.87011 1.8105l3.353 15.812h-5.313l-0.01611-0.07471 0.96387-1.7358-1.6641-7.875c-0.1032-0.48747-0.28528-1.2267-0.54493-2.2192-0.05764 0-1.4149-0.60339-4.0708-1.8106h-0.0747l2.8916 13.715h-5.2398zm15.246 0 0.88769-1.7358-3.4072-16.022h11.084l0.95361 4.4517h-0.07471c-2.2134-1.0167-3.3645-1.5249-3.4556-1.5249h-3.7749l-0.12451 0.06153c0.36341 1.4718 0.62192 2.563 0.77344 3.2739l1.7988 8.4331c0.01647 0.0747 0.07053 0.11973 0.16553 0.13623h3.6328c0.19049 0 1.1316-0.50823 2.8213-1.5249h0.13623l0.95508 4.4517h-12.372zm14.498 0 0.88917-1.7358-3.4072-16.022h11.083l0.95507 4.4517h-0.0747c-2.2134-1.0172-3.3659-1.5249-3.457-1.5249h-3.7749l-0.12304 0.06153c0.36341 1.4718 0.62136 2.563 0.77343 3.2739l1.7974 8.4331c0.01592 0.0747 0.07199 0.11923 0.16699 0.13623h3.6328c0.19049 0 1.1301-0.50878 2.8198-1.5249h0.13623l0.95508 4.4517h-12.372zm15.245 0c-0.03404-0.157 0.28425-0.73564 0.95508-1.7358-0.66644-2.8442-1.1547-4.981-1.4648-6.4116l-2.0845-9.6108h5.2998l0.0293 0.13623-0.90528 1.5996 0.89502 4.1177c0.01591 0.07464 0.072 0.11923 0.167 0.13623h3.4907c0.09114 0 0.12673-0.04513 0.10693-0.13623l-1.2773-5.8535h5.2998c0.02745 0.12407-0.26369 0.70215-0.87304 1.7358l3.5039 16.022h-3.7705c-0.24099 0-1.7052-0.60339-4.3901-1.8106h-0.06153l0.39405 1.8106h-5.3145zm15.376 0-0.0293-0.13623c0.60989-1.0419 0.89607-1.6453 0.85987-1.8106l-2.1372-9.7485c-0.32993-1.5047-0.79745-3.5211-1.4019-6.0513h5.2998l0.03076 0.13623-0.88623 1.6743 2.187 9.9463c0.02525 0.11583 1.4253 0.76835 4.1997 1.9585l-3.0234-13.715h5.2866l0.03076 0.13623c-0.60934 1.0249-0.8941 1.6288-0.854 1.8106l3.4936 15.8h-3.8335c-0.14163 0-0.3435-0.07041-0.60645-0.21094-2.4006-1.0666-3.6585-1.5996-3.7749-1.5996l0.3999 1.8106h-5.2412zm15.458 0-0.01612-0.07471c0.54677-1.0502 0.86837-1.6035 0.96387-1.6611-2.1064-9.2763-3.31-14.592-3.6108-15.948l-0.01611-0.0747h10.45l1.0415 4.6626c-2.5598-1.1572-3.8731-1.7358-3.939-1.7358h-2.7202c-0.0747 0-0.10847 0.04563-0.10547 0.13623l1.0371 4.6626c0.01811 0.08237 0.07345 0.13292 0.16845 0.14942h4.8853l0.71338 3.1992h-4.8867c-0.0747 0-0.11094 0.04514-0.10694 0.13624l0.77491 3.4849c0.01647 0.0747 0.07199 0.11973 0.16699 0.13623h6.4321l0.65332 2.9268h-11.886zm28.238 0-0.01758-0.07471c0.54292-1.0502 0.86154-1.6035 0.95654-1.6611-1.5019-6.4322-2.6374-11.356-3.4087-14.77l-0.28271-1.2524h5.2998l0.03076 0.13623c-0.60329 1.0255-0.88545 1.6283-0.84375 1.8105l0.646 2.852c0.01262 0.05709 0.60996 0.33925 1.793 0.84375 0.11528 0 0.22933-0.21121 0.34131-0.63281 0.91951-3.3157 1.4266-4.9851 1.5205-5.0098h4.1821l0.01758 0.0747c-0.25965 1.0414-0.92501 3.4307-1.9966 7.1675 0.03788 0.16468 0.94525 0.58272 2.7217 1.2524l2.1079 9.2637h-13.068zm4.6919-3.3486h3.4966c0.0911 0 0.12637-0.04563 0.10547-0.13623l-0.66504-2.9268c-0.02086-0.09113-0.36464-0.2776-1.0327-0.55811-1.9977-0.87669-3.0497-1.314-3.1567-1.314l1.0854 4.7988c0.01867 0.08234 0.07369 0.12823 0.16699 0.13623zm-55.649-0.75586h0.07471l-0.91114-4.1792c-0.01977-0.09054-0.07589-0.13624-0.16699-0.13624h-3.4922c-0.07465 0-0.10993 0.04564-0.10693 0.13624l0.49805 2.2939 0.09228 0.13623c2.5417 1.166 3.8794 1.749 4.0122 1.749zm-67.009-4.8618h3.5581c0.11363 0 0.76334-1.0128 0.73974-1.1265l-0.80127-3.8335c-0.0236-0.11368-0.09144-0.17139-0.20508-0.17139h-4.2671c-0.0933 0-0.13776 0.05775-0.13476 0.17139l0.10986 0.52734c0.21739 1.043 0.48159 2.4649 0.79395 4.2627 0.01921 0.09333 0.08796 0.14902 0.20654 0.16992z" fill="#fff"/>
   <path d="m297.75 458.72s-1.9223-1.1048-1.79-2.4272c0.13285-1.3224 3.2531-5.045 3.6358-6.6299 0 0 0.0626 1.967-1.0342 3.7412-0.15931 0.25757-0.30323 0.5174-0.42774 0.77783 1.122-1.0618 2.8696-1.2773 2.8696-1.2773-2.1228 1.3252-1.3799 3.3882-1.3799 3.3882s0.53114 0.3404 1.5923 0.07911c1.486-0.36671 2.0967 0.44493 2.1445 0.45703 0 0-2.3461 1.3291-3.208 1.585-0.39699 0.11808-0.67367 0.14353-0.90088 0.08349l0.01465 0.02784-0.27686 0.04248h-0.00146l-0.02637 0.00293-0.53174 0.08056c-0.00495-0.00445-0.00973-0.00872-0.01465-0.01318l-0.66504 0.08203zm8.9736-0.9668 2.5854-16.736 10.266-5.3818c-2.6745 8.7713-3.6284 13.932-3.6284 13.932l-9.2226 8.1855zm27.353-6.4834 0.00147-5.6646-1.4326-0.92578-1.8047 3.6357 0.09668-4.4663 6.1787-1.7124 0.19922 1.4253-3.2388 7.708zm-31.206-0.98291-0.52002-1.4165-2.0537-0.12891-1.125 0.67237-0.25635-0.39698-0.51416 0.38965-0.67969 0.10694 0.51563-1.2876 1.8018-0.77197 2.77 0.40722 0.06153 2.4258zm-69.81-51.193 3.9946-2.77h-1.9614l1.6743-1.3799-3.1128-15.003-1.8647-1.7783h1.5659l-4.3008-2.2954h4.6714v0.00293h12.256s0.25776 0.14629 2.9839 2.3921l0.12745 0.11133 1.8179 8.6631-1.0869 0.41309 1.27 0.45996 1.7871 8.5225-1.9087 2.6616h-14.916-2.9971zm138.58 0 2.5283-2.1533h-1.7285l2.1885-1.7329-0.39551-1.7373c-0.25637-1.1248-0.60728-2.7976-1.0415-4.9732l-0.07471-0.37207 5.2354-2.8096c2.2661-1.1089 3.0837-1.5823 3.3779-1.7783l-0.58594-2.5503h-5.1035l-4.0371 2.3013-1.6919-7.418h15.671l2.5166 10.922c0.09989 0.42928-0.31127 0.71862-0.55665 0.89209l-0.05127 0.03076c-5.4709 2.977-7.2892 4.0252-7.853 4.3799l0.4292 1.8809h5.1167c0.17182-0.0609 0.83479-0.37266 3.3896-1.8384l0.66358-0.40283 1.6948 7.3594h-19.692zm-135.77-1.0254h14.553c0.15316-0.18884 0.51782-0.66636 1.3726-1.8647l-1.5762-7.5088-2.4346-1.3389 1.9438-1.002-0.14063-0.66944h-2.124l-3.0557-5.5781 0.95068 4.5527-1.0474 1.0254h-3.9024-2.9429l-2.5151-4.5776 3.1934 15.391-2.2749 1.5703zm139.24-0.00146h14.937l-1.0913-4.7373c-2.932 1.6705-3.1248 1.6714-3.312 1.6714h-5.4097l-0.08789-0.00879c-0.32114-0.056-0.55504-0.26624-0.62256-0.56103l-0.58008-2.5371 0.02051-0.10547c0.0637-0.33377 0.08027-0.42501 8.4141-4.96l0.06885-0.05127-0.38525-1.6714h-2.2588l-2.4727-3.5552 0.46582 2.0332c0.1087 0.47101 0.14601 0.62991-3.9712 2.644l-4.5498 2.439c0.398 1.9861 0.72105 3.5249 0.96093 4.5762l0.73975 3.2476-0.09814 0.17285c-0.38042 0.66698-0.61826 1.1096-0.76758 1.4033zm-134.33-2.6323 1.0415-0.57714-0.14649-0.69874c-0.18445-0.88766-0.94043-4.0767-0.94043-4.0767l-0.18896-0.77783h1.106 0.98144 2.1738l1.7754 1.2232 0.86133 4.1191-0.63721 0.78808h-4.2759-1.7505zm102.44-0.77783 1.3945-2.376c-1.5118-6.6581-2.3741-10.468-2.9399-12.977l-1.7856-1.7226h1.125l-1.771-1.708h3.189 9.9726l1.3535 6.0644-0.93457-0.42187c-2.7975-1.2654-3.5998-1.6086-3.8101-1.6904h-2.1343l0.87159 3.9228h5.02l0.94336 4.2246h-5.0244l0.60791 2.7319h6.5684l0.88184 3.9522h-12.938-0.59034zm-89.858-0.00586 0.47608-0.91113c0.61977-1.0419 0.76521-1.4052 0.7998-1.5161l-3.438-16.356h4.4663c0.15371 0 0.29894-5.1e-4 3.5757 1.4707l-0.31054-1.4707h6.3472l0.50097 0.01172-1.2422 2.4053 3.4717 16.367h-6.3633-0.4834l1.3066-2.4053-1.626-7.6875c-0.0917-0.43368-0.25082-1.0858-0.47315-1.9438-0.39635-0.16305-1.2139-0.52805-3.0117-1.3433l2.8213 13.38h-6.2886-0.52881zm15.199 0 0.93457-1.6304h-1.0444l1.3242-1.2832-3.375-15.87h12.13l1.2056 5.6177-4.2671-1.6655h-3.1875c0.2904 1.1896 0.50308 2.101 0.63428 2.7158l1.7417 8.1636h3.3076l3.3589-1.8062 1.2349 5.7583h-13.421-0.57715zm14.498 0 1.3389-2.3335-2.814-13.23-1.5688-1.5117h1.1279l-1.7725-1.708h3.189 10.471l1.2041 5.6177-4.2656-1.667h-3.189c0.29095 1.1901 0.50454 2.1025 0.63574 2.7173l1.7417 8.1636h3.3062l3.3589-1.8076 1.2349 5.7598h-13.421-0.57715zm15.139 0 1.5029-2.3481c-0.62298-2.6573-1.0844-4.6826-1.3872-6.0732h-2.3525l1.4312-1.4927h-1.1074l1.3154-1.7886-1.5352-7.0811h6.3486l0.15967 0.73096-0.90528 1.5996 0.79541 3.6592h2.7144l-1.3066-5.9898h6.3486l-0.74121 2.335 3.5962 16.449h-4.4077c-0.17402 0-0.43099-9.6e-4 -3.7412-1.4722l0.31933 1.4722h-7.0474zm15.529 0 1.2583-2.4228-2.1211-9.6753c-0.32443-1.4811-0.79507-3.514-1.3989-6.0425l-0.15088-0.63135h6.3618 0.54052l-1.2671 2.3965 2.1064 9.5786c0.24538 0.13779 0.95898 0.48984 3.022 1.3857l-2.9458-13.361 6.9419-0.01172-0.54493 0.92285c-0.61757 1.0386-0.75167 1.3961-0.78076 1.5015l3.6182 16.359h-4.4707c-0.22837 0-0.49332-0.0833-0.83203-0.2622-1.4388-0.63954-2.3133-1.0182-2.8447-1.2422l0.33105 1.5044h-6.8232zm15.401 0 1.3945-2.376c-2.0981-9.2401-3.2618-14.38-3.5566-15.709l-0.15674-0.69873h11.503l1.3535 6.0644-0.93457-0.42187c-2.7975-1.2648-3.5998-1.6092-3.8101-1.6904h-2.1343l0.87158 3.9228h5.02l0.94189 4.2246h-5.023l0.60791 2.7319h6.5669l0.8833 3.9522h-12.938-0.59033zm28.34 0c0.44905-0.86901 1.1256-2.1348 1.2832-2.373-1.4701-6.2949-2.5971-11.184-3.353-14.533l-0.4248-1.8779h6.3501l0.55957 0.00586-0.49512 0.90381c-0.61209 1.0381-0.74397 1.3946-0.77197 1.5l0.58594 2.584c0.15206 0.0774 0.47304 0.22834 1.1499 0.52149l0.03662-0.12891c1.895-5.0768 1.7844-5.1189 1.8838-5.3686l4.7212-0.01758 0.29443 0.00586c-0.25417 1.0211-1.0832 4.031-2.0933 7.5586 0.26954 0.14273 0.88954 0.42553 2.313 0.96241l0.25781 0.09814 2.313 10.159h-14.123-0.48779zm-114.7-0.2417h3.5713l-0.68555-3.2754-1.1543-0.83056h-2.1753c-0.19928 0-0.35879 0.0102-0.4834 0.0249 0.38208 1.5881 0.66187 2.8042 0.83204 3.6211l0.09521 0.45996zm102.25-0.77783h10.45l-0.42481-1.9014h-6.0205l-0.08935-0.00732c-0.30137-0.0527-0.51767-0.25286-0.57861-0.53174l-0.77491-3.4834-0.01172-0.09082c-0.01-0.24264 0.08796-0.39813 0.17139-0.48486 0.11473-0.11968 0.27331-0.18457 0.44678-0.18457h4.2466l-0.40869-1.8354h-6.5083l-2.3862-4.0269 2.6206 11.568-0.73242 0.97851zm-89.93-0.00586h3.8262l-2.8916-13.715h-0.00146l1.0957 5.1958h-1.3799l-2.7598-5.7627 0.00147 0.00733 2.6777 12.735c0.0461 0.22123 0.02727 0.47731-0.56836 1.5396zm7.7871 0h3.8672l-1.8076-8.5195h-0.82471l-3.0322-4.5527 0.11719 1.1675h0.00146l0.09961 0.38232c0.26515 1.0117 0.44392 1.7462 0.54932 2.2441l1.7051 8.0625-0.67529 1.2158zm7.4546 0h10.96l-0.68701-3.2051c-2.1936 1.3032-2.4041 1.3037-2.5913 1.3037h-3.6328l-0.08789-0.00732c-0.30138-0.0532-0.51768-0.25251-0.57861-0.53467l-1.2964-6.0762h-1.4238l-2.3686-3.7119 2.3584 11.093-0.65186 1.1382zm14.498 0h10.96l-0.68701-3.2051c-2.1936 1.3027-2.4026 1.3037-2.5898 1.3037h-3.6328l-0.08935-0.00878c-0.30192-0.0527-0.51768-0.25251-0.57862-0.53467l-1.2964-6.0747h-1.4224l-2.3686-3.7119 2.3584 11.093-0.65332 1.1382zm15.249 0h3.8965l-0.39404-1.8106h0.80859l0.09961 0.04395c3.302 1.4849 4.04 1.7331 4.2041 1.7666h3.1084l-1.7871-8.1709-3.044 0.03955c0.04892 0.07272 0.08517 0.15654 0.10547 0.25049l1.0474 4.8018h-0.71192c-0.16688 0-0.3109-8e-4 -4.2261-1.7959l-0.13037-0.06006-0.22705-0.33838-0.52002-2.3892-0.01172-0.08789c-9e-3 -0.24209 0.08943-0.39703 0.17285-0.48486 0.05979-0.06179 0.13033-0.10925 0.20947-0.14063l-4.8442-6.0644 1.4531 6.6958c0.30851 1.4229 0.80079 3.5768 1.4634 6.4028l0.05127 0.21827-0.12451 0.18603c-0.27942 0.41611-0.46958 0.71902-0.59913 0.9375zm15.369 0h3.8276l-0.39844-1.8106h0.63868c0.1581 0 0.28347-3e-5 3.9829 1.6436l0.03222 0.01611c0.26679 0.14273 0.36511 0.15088 0.36621 0.15088h3.1934l-1.8838-8.521h-0.9873l-3.0073-4.5586 2.2998 10.427-0.91846-0.39404c-4.4032-1.8895-4.4246-1.9893-4.4971-2.3203l-0.69433-3.1538h-1.0005l-2.9019-4.3989c0.13002 0.57095 0.26591 1.1626 0.36768 1.6274l2.1372 9.7485c0.0489 0.22123 0.03184 0.47731-0.55664 1.5439zm15.48 0h10.449l-0.42333-1.9014h-6.022l-0.08789-0.00732c-0.30137-0.0527-0.51767-0.25194-0.57861-0.53027l-0.7749-3.4849-0.01172-0.09082c-0.01-0.24264 0.08795-0.39758 0.17138-0.48486 0.11473-0.11968 0.27331-0.18457 0.44678-0.18457h4.2466l-0.40869-1.8354h-6.5083l-2.3862-4.0269 2.6206 11.568-0.73243 0.97851zm28.233 0h11.632l-1.6875-7.4194-10.169-3.8262-2.1138-3.0059c0.74743 3.2828 1.709 7.4533 2.9839 12.911l0.08496 0.36035-0.73096 0.97998zm3.9009-2.3232-0.04834-0.00147c-0.31455-0.0291-0.55156-0.23347-0.61963-0.5332l-1.2275-5.4258h0.64161c0.1559 0 0.26824 7e-4 3.3545 1.355 1.0013 0.4205 1.264 0.60024 1.3359 0.91699l0.66503 2.9282c0.0604 0.26899-0.0453 0.45012-0.11279 0.53466-0.0675 0.0845-0.22082 0.22559-0.49365 0.22559h-3.4951zm0.27246-1.0239h2.7173l-0.51709-2.2793c-0.10156-0.0576-0.32019-0.16877-0.77637-0.36035-1.0864-0.47704-1.7868-0.77741-2.2397-0.9668l0.81591 3.6064zm-56.544-1.0327-0.65772-3.0146h-2.7173l0.36181 1.6626c1.5689 0.71859 2.4824 1.1248 3.0132 1.352zm-66.133-4.5864h3.6475l-0.85694-4.106h-3.561l0.01611 0.08056c0.20916 1.0019 0.4629 2.3549 0.7544 4.0254z" fill="#e4e5e6"/>
   <path d="m304.4 456.11 0.46881 2.9605c-1.4877 2.2721-5.6466 3.0764-5.6466 3.0764-4.0376-0.80148-5.4106-4.3324-5.4106-4.3324-0.10814-2.1942 0.97111-4.6458 2.0795-6.4997 1.1084-1.8538 1.0397-3.2498 1.0397-3.2498 0.96782-0.64722 1.5563-0.87613 3.1516-0.95464 1.5958-0.0785 3.0484 0.50834 3.0484 0.50834l-0.29974 0.92006c-0.15151-1.2654-4.6019-0.1065-4.6019-0.1065s0.50944 1.8429-1.3867 3.9355c-1.8961 2.0921-2.1382 5.303-2.1382 5.303 1.0952 1.9455 4.3648 3.3838 4.3648 3.3838 2.3929-0.11748 5.0872-2.2491 5.0872-2.2491l-0.44795-0.97769-3.5309 1.3729c-1.5958 0.0785-2.4226-0.48034-2.4226-0.48034 0.24649-0.0434 0.49516-0.0983 0.74439-0.1581-1.2895-0.69333-2.6388-2.0229-1.2763-4.3329 1.5805-2.6784 2.1064-2.8897 2.3764-4.5668 0 0 1.4926-0.27723 2.1201 0.11748 0.62746 0.3958 0.63515 2.0141 0.63515 2.0141s-0.52152-1.2752-1.2643-1.5074l-0.96507 0.12517s-0.0895 1.9142-1.5838 3.7324c-1.239 1.5069-0.14877 3.2087 0.74823 4.2045 2.6619-0.7938 5.1103-2.2387 5.1103-2.2387"/>
  </g>
 </g>
</svg>