<?xml version="1.0" encoding="UTF-8" standalone="no"?>
<svg xmlns:rdf="http://www.w3.org/1999/02/22-rdf-syntax-ns#" xmlns="http://www.w3.org/2000/svg" enable-background="new 0 0 511.545 500" xml:space="preserve" height="189.5" viewBox="0 0 193.82965 189.5" width="193.83" version="1.1" y="0px" x="0px" xmlns:cc="http://creativecommons.org/ns#" xmlns:dc="http://purl.org/dc/elements/1.1/"><g transform="matrix(.375 0 0 .375 1.0336 .96636)"><path fill="#663700" d="m510.62 200.6c-6.402-43.815-69.726-19.23-54.021-60.095 0 0-46.951-39.782-153.29-48.686l0.678-2.653c2.124-8.21 4.833-9.957 9.054-10.262h37.859l20.39-78.905h-237.64l-20.39 78.9h44.27l-6.031 23.322c-28.647 1.848-47.256 5.037-47.256 5.037l20.038 12.655c-40.491 5.96-81.662 19.76-124.28 37.8 0 0 63.76 5.067 123.72 52.016l-49.019 189.67s-5.65 21.708-26.718 21.708h-23.155l-20.39 78.89h350.34l47.767-150.81h-72.417c-5.668 21.92-18.582 71.915-72.852 71.915h-39.075l10.938-42.321c23.656-27.656 103.74-102.39 227.95-25.549 0 0 13.508-68.437-101.87-109.64 0 0 23.229-11.855 47.888-11.855 56.701 0 48.722 57.137 48.722 57.137 17.375-13.211 67.063-46.878 58.789-88.29z"/><path fill="#fff" d="m333.41 186.02c0.157 1.224 0.26 2.468 0.26 3.738 0 0.714-0.056 1.411-0.103 2.116-3.664-1.041-7.383-1.968-10.863-2.766-9.11-2.086-16.504-3.275-16.504-3.275s5.502 1.355 15.911 8.61c2.717 1.901 5.779 4.211 9.166 6.994-4.537 10.548-15.01 17.952-27.229 17.952-16.355 0-29.622-13.266-29.622-29.631 0-11.141 6.16-20.827 15.242-25.892-4.555-1.448-9.064-2.662-13.46-3.629-7.857 7.403-12.784 17.878-12.784 29.521 0 22.44 18.192 40.624 40.624 40.624 3.72 0 7.311-0.546 10.734-1.473 1.716-0.474 3.404-1.013 5.028-1.7 13.062-5.5 22.599-17.644 24.481-32.2-3.487-3.209-7.124-6.216-10.881-8.989z"/><g><path fill="#c1a875" d="m150.82 23.154-8.4141 32.58h15.326s28.925 0.02873 20.297 33.428l-3.1055 12.002c22.533-0.594 48.705-0.0356 75.867 3.1094l-21.86-13.393c18.406-0.985 35.55-1.0493 51.572-0.44531l0.32421-1.2715c8.637-33.399 37.572-33.426 37.572-33.426h15.324l8.4238-32.58h-191.33zm274.13 139.43c-22.258-0.0486-39.572 19.104-54.812 34.781-14.184 15.262-31.875 23.474-50.328 29.846-1.624 0.687-3.3113 1.2252-5.0273 1.6992-27.201 8.904-55.533 14.907-76.453 34.369 39.65 16.883 76.889 27.146 118.42 33.24 36.588 5.373 64.531 20.05 81.711 29.613-36.838-44.964-125.76-41.256-179.67-64.131 65.384-32.869 129.91-51.794 183.25-39.438 13.275 5.038 19.026 19.973 22.643 31.764 16.228-12.978 28-38.751 23.529-55.031-6.707-24.418-57.369-8.4512-82.891 2.2988-8.507-0.712-19.389 0.65039-19.389 0.65039 11.531-14.927 31.664-31.179 51.906-37.516-4.4792-1.47-8.7708-2.1375-12.893-2.1465zm-282.33 63.59-47.725 184.67s-8.6365 33.426-52.896 33.426l-8.4238 32.58h305.35l33.09-104.5h-26.096c-0.003 0-21.896 71.916-94.627 71.916h-62.23l24.463-94.684c-15.251-55.68-41.708-95.264-70.902-123.41z"/><path fill="#994708" d="m280.59 109.23 14.814 15.762c-33.703-8.284-92.853-3.8692-137.46 3.4688-43.815 7.218-92.455 29.26-92.455 29.26 140.81 27.656 167.27 189.56 167.27 189.56s21.632-32.32 71.607-42.748c-23.127-13.025-66.626-25.688-91.359-27.998 6.513-26.104 32.246-39.761 50.697-49.928 0 0-15.418-11.747-15.418-38.156 0-7.729 0.0195-22.089 11.561-30.783-13.591-1.251-25.037 0.10401-32.023 3.666 0 0 51.784-54.55 137.46 12.957 0 0 16.086-26.651 45.021-34.443 0 0.001-28.425-28.804-129.71-30.613zm42.301 146.31c-2.9396 0.10614-5.7804 1.1506-7.0117 3.332 13.405 5.965 32.359 12.784 50.922 14.816l-37.58-16.79c-1.6962-0.96075-4.0418-1.4458-6.3281-1.3633z"/><path fill="#027346" d="m333.41 186.02c-6.225-4.621-12.765-8.62-19.417-12.07 5.083 3.21 8.489 8.759 8.711 15.158 3.479 0.798 7.199 1.725 10.863 2.766 0.047-0.706 0.103-1.402 0.103-2.116 0-1.27-0.103-2.514-0.26-3.738zm-29.362 22.459c-10.344 0-18.721-8.377-18.721-18.722 0-10.333 8.377-18.72 18.721-18.72 2.375 0 4.629 0.481 6.726 1.288-7.013-3.423-14.119-6.233-21.105-8.46-9.082 5.065-15.242 14.751-15.242 25.892 0 16.365 13.266 29.631 29.622 29.631 12.218 0 22.692-7.403 27.229-17.952-3.386-2.782-6.448-5.093-9.166-6.994-2.088 8.063-9.344 14.037-18.064 14.037z"/></g></g></svg>
