<?xml version="1.0" encoding="utf-8"?><svg version="1.1" xmlns="http://www.w3.org/2000/svg" x="0px" y="0px" width="300px" height="146.45px">
<path fill="#BABCBE" d="M250.76,146.32c7.54-17.59,7.03-27.88,7.03-27.88c0-0.02,0-0.04,0-0.06c-28.11-8.49-54.53,18.65-54.8,18.92
	l-3.02,3.17l-2.15-3.82C148.99,50.05,53.51,70.83,52.54,71.04l-7.67,1.75l4.2-6.65c10.96-17.32,23.31-25.53,30.98-29.25
	c-13.2-7.35-63.38-15.75-63.38-15.75h75.9C59.13,6.71,3.48,0.29,0.25,0.25l164.62-0.13c14.95,0.13,33.58,0.53,53.11,6.08
	c0.68,0.15,67.22,15.63,81.64,84.43l0.13,0.59C299.75,91.25,295.21,133.55,250.76,146.32"/>
<path fill="#00483A" d="M217.28,9.37c-19.39-5.49-44.31-6.31-56.26-6.02L42.44,3.48c0,0,39.05,5.49,64.18,20.93H47.22
	c0,0,26.65,2.64,41.01,12.84c0,0-19.87,4.5-36.41,30.66c0,0,98.18-22.66,148.82,67.18c0,0,29.02-30.56,60.27-19.2
	c0,0,1.31,9.74-4.62,25.11c33.85-11.59,40.17-49.69,40.17-49.69C282.31,23.75,217.28,9.37,217.28,9.37z M272.17,115.91
	c0.59-2.94,0.08-5.77-0.42-7.58c-14.04-7.41-31.02-7.07-31.02-7.07s4.05-1.84,18.9-6.23c8.64-2.51,15.54-5.96,19.85-13.14
	c1.8,4.54,2.07,5.87,3.36,10.81C282.26,96.08,282.75,105.35,272.17,115.91z"/>
<path fill="#FFFFFF" d="M262.86,75.3c0.04-0.3-8.91,1.29-15.33-2.83c-3.17-10.79-9.88-17.53-9.88-17.53S256.5,63.35,262.86,75.3z
	 M274.05,96.57c0,0,1.9,0.04,2.96,0.74c-0.02,0,1.1,1.12,1.1,1.75c1.5-2.47,1.9-5.53,1.9-5.53s-0.3-2.94-1.1-4.96
	C278.91,88.57,279.67,93.74,274.05,96.57z M76.7,57.39c51.47-1.94,93.45,21.41,115.31,49.63c-5.83-14.8-17.32-32.4-47.71-46.21
	c0,0,34.87,7.37,58.77,27.62c-8.6-17.55-21.84-24.5-21.84-24.5s32.14,5.55,48.87,34.06c4.96-2.01,12.27-2.41,19.05-6.97
	c-12.31-1.96-21.14-8.87-21.14-8.87c10.77,2.39,17.04-2.72,16.85-3.25c-18.37-31.7-65.42-46-65.21-45.72
	c57.67-0.87,82.66,26.08,92.18,41.37c-0.32,0.87-1.14,1.54-2.83,1.67c0,0,1.9,3.78,5.62,2.72c8.91-2.51,4.29-10.96,4.29-10.96
	c-12.67-24.96-34.06-41.9-63.97-50.39c-24.54-6.36-48.4-5.64-48.47-5.66c-28.3,0.04-71.49,0.02-71.49,0.02
	c31.55,3.23,49.35,16.37,51.68,18.14h-27.58c0,0,29.33,9.02,37.21,14.89C106.37,31.59,76.7,57.39,76.7,57.39z"/>
</svg>
